<svg id="svg" version="1.1" xmlns="http://www.w3.org/2000/svg" xmlns:xlink="http://www.w3.org/1999/xlink" width="400" height="314.8182665424045" viewBox="0, 0, 400,314.8182665424045"><g id="svgg"><path id="path0" d="M134.296 1.324 C 62.537 5.798,5.614 63.276,1.665 135.248 C 1.107 145.415,1.862 147.907,6.109 149.919 L 7.363 150.513 12.721 150.570 L 18.080 150.627 18.080 166.356 L 18.080 182.086 12.535 182.143 L 6.990 182.199 5.737 182.793 C -0.260 185.634,-0.486 194.199,5.357 197.179 C 6.996 198.016,7.981 198.136,13.180 198.136 L 18.080 198.136 18.080 213.793 L 18.080 229.450 13.366 229.450 C 5.765 229.450,3.204 230.705,1.831 235.105 C 1.351 236.643,1.302 284.475,1.777 287.767 C 3.607 300.450,12.953 310.367,25.722 313.176 L 27.679 313.607 200.000 313.607 L 372.321 313.607 374.278 313.176 C 387.047 310.367,396.393 300.450,398.223 287.767 C 398.698 284.475,398.649 236.643,398.169 235.105 C 396.796 230.705,394.235 229.450,386.634 229.450 L 381.920 229.450 381.920 213.793 L 381.920 198.136 386.820 198.136 C 392.019 198.136,393.004 198.016,394.643 197.179 C 400.486 194.199,400.260 185.634,394.263 182.793 L 393.010 182.199 387.465 182.143 L 381.920 182.086 381.920 166.356 L 381.920 150.627 387.279 150.570 L 392.637 150.513 393.891 149.919 C 398.138 147.907,398.893 145.415,398.335 135.248 C 394.374 63.050,337.417 5.733,265.238 1.309 C 261.525 1.081,137.960 1.095,134.296 1.324 M264.588 17.341 C 327.497 21.411,376.796 70.113,382.175 133.504 L 382.266 134.576 200.000 134.576 L 17.734 134.576 17.825 133.504 C 23.186 70.319,72.369 21.546,134.949 17.358 C 138.468 17.122,260.962 17.106,264.588 17.341 M134.856 28.963 C 127.522 30.749,126.592 40.792,133.458 44.064 L 134.669 44.641 138.304 44.641 L 141.938 44.641 143.198 44.044 C 150.069 40.790,149.219 30.888,141.905 28.983 C 140.597 28.643,136.223 28.630,134.856 28.963 M174.371 28.967 C 166.413 30.939,166.275 42.368,174.185 44.481 C 175.748 44.899,180.558 44.820,181.940 44.355 C 189.507 41.806,189.160 30.999,181.447 28.990 C 180.106 28.641,175.745 28.627,174.371 28.967 M218.472 29.000 C 210.830 31.055,210.541 41.822,218.060 44.355 C 219.442 44.820,224.252 44.899,225.815 44.481 C 233.845 42.336,233.523 30.640,225.387 28.914 C 223.981 28.616,219.703 28.669,218.472 29.000 M258.015 28.993 C 250.765 30.945,249.970 40.808,256.802 44.044 L 258.062 44.641 261.696 44.641 L 265.331 44.641 266.542 44.064 C 273.516 40.741,272.407 30.493,264.902 28.913 C 263.510 28.619,259.215 28.669,258.015 28.993 M39.702 108.691 C 32.189 109.909,30.753 120.448,37.640 123.819 L 38.863 124.418 87.329 124.418 L 135.795 124.418 137.090 123.780 C 144.101 120.329,142.549 109.926,134.834 108.663 C 133.423 108.432,41.133 108.459,39.702 108.691 M162.180 108.692 C 154.611 109.948,153.268 120.513,160.257 123.824 L 161.510 124.418 165.663 124.477 C 169.171 124.527,169.968 124.487,170.789 124.221 C 178.775 121.630,177.897 109.973,169.618 108.674 C 168.168 108.446,163.592 108.457,162.180 108.692 M365.890 166.356 L 365.890 182.106 200.000 182.106 L 34.110 182.106 34.110 166.356 L 34.110 150.606 200.000 150.606 L 365.890 150.606 365.890 166.356 M365.890 213.793 L 365.890 229.450 200.000 229.450 L 34.110 229.450 34.110 213.793 L 34.110 198.136 200.000 198.136 L 365.890 198.136 365.890 213.793 M382.431 265.750 C 382.378 284.596,382.350 286.099,382.039 287.139 C 380.630 291.859,377.234 295.391,372.507 297.053 L 371.016 297.577 200.000 297.577 L 28.984 297.577 27.493 297.053 C 22.766 295.391,19.370 291.859,17.961 287.139 C 17.650 286.099,17.622 284.596,17.569 265.750 L 17.511 245.480 200.000 245.480 L 382.489 245.480 382.431 265.750 " stroke="none" fill="#ffffff" fill-rule="evenodd"></path><path id="path1" d="" stroke="none" fill="#fafafa" fill-rule="evenodd"></path><path id="path2" d="" stroke="none" fill="#fafafa" fill-rule="evenodd"></path><path id="path3" d="" stroke="none" fill="#fafafa" fill-rule="evenodd"></path><path id="path4" d="" stroke="none" fill="#fafafa" fill-rule="evenodd"></path></g></svg>